<svg xmlns="http://www.w3.org/2000/svg" width="180" height="180" viewBox="0 0 180 180">
  <rect width="180" height="180" fill="#5a463a" rx="30"/>
  <g transform="translate(30,30) scale(5)">
    <path d="M10 2v2" stroke="#FFFFFF" stroke-width="1.5" stroke-linecap="round" stroke-linejoin="round"/>
    <path d="M14 2v2" stroke="#FFFFFF" stroke-width="1.5" stroke-linecap="round" stroke-linejoin="round"/>
    <path d="M18 8h1a4 4 0 0 1 0 8h-1" stroke="#FFFFFF" stroke-width="1.5" stroke-linecap="round" stroke-linejoin="round"/>
    <path d="M6 8H4a4 4 0 0 0 0 8h2" stroke="#FFFFFF" stroke-width="1.5" stroke-linecap="round" stroke-linejoin="round"/>
    <path d="M18 16H6a4 4 0 0 1-4-4V8a4 4 0 0 1 4-4h12a4 4 0 0 1 4 4v4a4 4 0 0 1-4 4Z" stroke="#FFFFFF" stroke-width="1.5" stroke-linecap="round" stroke-linejoin="round"/>
  </g>
</svg>
