<svg width="512" height="512" viewBox="0 0 512 512" fill="none" xmlns="http://www.w3.org/2000/svg">
    <circle cx="256" cy="256" r="256" fill="#3A6345"/>
    <path d="M149.333 341.333C176 357.333 221.333 365.333 312 341.333L320 354.667C224 386.667 152 376 130.667 354.667L149.333 341.333Z" fill="#C6BBAF"/>
    <path d="M133.333 242.667C130.667 272 136 309.333 160 330.667H312C338.667 306.667 344 269.333 338.667 240L133.333 242.667Z" fill="white"/>
    <path d="M338.667 240C344 269.333 338.667 306.667 312 330.667H160C136 309.333 130.667 272 133.333 242.667M338.667 240H133.333M338.667 240C357.333 248 368 269.333 368 288C368 312 352 328 333.333 330.667" stroke="#694F41" stroke-width="8"/>
    <path d="M141.333 245.333C165.333 266.667 245.333 274.667 328 248C320 232 242.667 226.667 149.333 248L141.333 245.333Z" fill="#4A332D"/>
    <path d="M224 173.333C226.667 189.333 224 202.667 226.667 216" stroke="white" stroke-width="6.66667" stroke-linecap="round"/>
    <path d="M256 173.333C258.667 189.333 256 202.667 258.667 216" stroke="white" stroke-width="6.66667" stroke-linecap="round"/>
    <path d="M288 173.333C290.667 189.333 288 202.667 290.667 216" stroke="white" stroke-width="6.66667" stroke-linecap="round"/>
    <text fill="#F5F3EF" xml:space="preserve" style="white-space: pre" font-family="Georgia, serif" font-size="48" font-weight="bold" letter-spacing="0em"><tspan x="90" y="420">COFFEE TOWN</tspan></text>
    <text fill="#D2C4A8" xml:space="preserve" style="white-space: pre" font-family="'Brush Script MT', cursive" font-size="32" letter-spacing="0em"><tspan x="200" y="465">Bakery</tspan></text>
</svg>
