<svg width="512" height="512" viewBox="0 0 512 512" xmlns="http://www.w3.org/2000/svg">
  <!-- Background -->
  <circle cx="256" cy="256" r="256" fill="#2e5939" />

  <!-- Saucer -->
  <ellipse cx="256" cy="340" rx="90" ry="20" fill="#d9c1a3" opacity="0.7" />

  <!-- Cup body -->
  <path d="M196 260 q60 -40 120 0 v60 q0 30 -60 30 q-60 0 -60 -30 z"
        fill="#ffffff" stroke="#3e2c1c" stroke-width="5" />

  <!-- Cup rim -->
  <ellipse cx="256" cy="260" rx="60" ry="12" fill="#3e2c1c" />

  <!-- Handle -->
  <path d="M316 270 q30 10 30 30 q0 20 -30 30"
        fill="none" stroke="#3e2c1c" stroke-width="6" />

  <!-- Steam -->
  <path d="M240 200 q5 -20 0 -40" stroke="#ffffff" stroke-width="4" fill="none" />
  <path d="M256 200 q5 -25 0 -45" stroke="#ffffff" stroke-width="4" fill="none" />
  <path d="M272 200 q5 -20 0 -40" stroke="#ffffff" stroke-width="4" fill="none" />

  <!-- Title: COFFEE TOWN -->
  <text x="256" y="420" font-family="sans-serif" font-weight="bold" font-size="32"
        fill="#ffffff" text-anchor="middle" letter-spacing="2">
    COFFEE TOWN
  </text>

  <!-- Subtitle: Bakery -->
  <text x="256" y="455" font-family="sans-serif" font-size="20"
        fill="#d9c1a3" text-anchor="middle" letter-spacing="1">
    Bakery
  </text>
</svg>