<svg width="512" height="512" viewBox="0 0 512 512" fill="none" xmlns="http://www.w3.org/2000/svg">
  <rect width="512" height="512" fill="#FFFFFF"/>
  <g transform="translate(128, 120) scale(1.5)">
      <path d="M40 160 C 80 180, 160 180, 200 160" stroke="#3D2B1F" stroke-width="8" fill="none"/>
      <path d="M60 80 C 40 100, 40 140, 60 160 L 180 160 C 200 140, 200 100, 180 80 Z" fill="#F5F5F5" stroke="#3D2B1F" stroke-width="8"/>
      <path d="M180 100 C 210 100, 210 140, 180 140" stroke="#3D2B1F" stroke-width="8" fill="none"/>
      <path d="M90 70 Q 100 50, 110 70" stroke="#3D2B1F" stroke-width="6" fill="none" stroke-linecap="round"/>
      <path d="M120 70 Q 130 50, 140 70" stroke="#3D2B1F" stroke-width="6" fill="none" stroke-linecap="round"/>
      <path d="M150 70 Q 160 50, 170 70" stroke="#3D2B1F" stroke-width="6" fill="none" stroke-linecap="round"/>
  </g>
  <text x="256" y="380" text-anchor="middle" font-family="Georgia, serif" font-size="42" fill="#000000" font-weight="bold">COFFEE TOWN</text>
  <text x="256" y="435" text-anchor="middle" font-family="Georgia, serif" font-size="32" fill="#006400" font-style="italic">Bakery</text>
</svg>
