<svg xmlns="http://www.w3.org/2000/svg" viewBox="0 0 512 512">
    <!-- Background: Dark Chocolate -->
    <circle cx="256" cy="256" r="256" fill="#4E342E"/>

    <!-- Coffee Cup with Black stroke -->
    <g transform="translate(0, 20)">
        <!-- Cup Body -->
        <path fill="#FFFFFF" stroke="#000000" stroke-width="8" d="M388.2,148.2H123.8c-15.5,0-28.1,12.6-28.1,28.1v131.2c0,15.5,12.6,28.1,28.1,28.1h264.4c15.5,0,28.1-12.6,28.1-28.1V176.3C416.3,160.8,403.7,148.2,388.2,148.2z"/>
        <!-- Cup Handle -->
        <path fill="#FFFFFF" stroke="#000000" stroke-width="8" d="M416.3,209.1c-15.5,0-28.1,12.6-28.1,28.1s12.6,28.1,28.1,28.1h28.1v-56.2H416.3z"/>
    </g>
    
    <!-- Steam in Green -->
    <g fill="#2E7D32">
        <path d="M225.5,108.4c-4.4,0-8,3.6-8,8v32.5c0,4.4,3.6,8,8,8s8-3.6,8-8v-32.5C233.5,112,229.9,108.4,225.5,108.4z"/>
        <path d="M281.7,108.4c-4.4,0-8,3.6-8,8v32.5c0,4.4,3.6,8,8,8s8-3.6,8-8v-32.5C289.7,112,286.1,108.4,281.7,108.4z"/>
        <path d="M337.9,108.4c-4.4,0-8,3.6-8,8v32.5c0,4.4,3.6,8,8,8s8-3.6,8-8v-32.5C345.9,112,342.3,108.4,337.9,108.4z"/>
    </g>
    
    <!-- Text: COFFEE TOWN Bakery -->
    <text x="256" y="80" font-family="'Poppins', sans-serif" font-size="48" font-weight="bold" fill="white" text-anchor="middle" letter-spacing="2">COFFEE TOWN</text>
    <text x="256" y="460" font-family="'Pacifico', cursive" font-size="52" fill="#2E7D32" text-anchor="middle" stroke="white" stroke-width="2">Bakery</text>
</svg>
