<svg width="192" height="192" viewBox="0 0 200 200" xmlns="http://www.w3.org/2000/svg" xmlns:xlink="http://www.w3.org/1999/xlink">
  <style>
    @import url('https://fonts.googleapis.com/css2?family=Playfair+Display:wght@700');
  </style>
  <defs>
    <path id="top" d="M 40,100 a 60,60 0 1,1 120,0" fill="none"/>
    <path id="bottom" d="M 160,100 a 60,60 0 1,1 -120,0" fill="none"/>
  </defs>
  <circle cx="100" cy="100" r="98" fill="#633a29"/>
  <circle cx="100" cy="100" r="94" fill="none" stroke="white" stroke-width="2"/>
  <circle cx="100" cy="100" r="65" fill="#e8d5b8" stroke="white" stroke-width="1.5"/>
  <path transform="translate(70 70) scale(2.5)" d="M9 22v-4a3 3 0 0 1 3-3h0a3 3 0 0 1 3 3v4M8 11h8M12 11v11M16 8a4 4 0 0 0-8 0" stroke="#633a29" stroke-width="1.5" stroke-linecap="round" stroke-linejoin="round" fill="none"/>
  <text font-family="'Playfair Display', serif" font-weight="700" font-size="22" fill="white" letter-spacing="1">
    <textPath xlink:href="#top" startOffset="50%" text-anchor="middle">
      COFFEE TOWN
    </textPath>
  </text>
  <text font-family="'Playfair Display', serif" font-weight="700" font-size="22" fill="white" letter-spacing="1">
    <textPath xlink:href="#bottom" startOffset="50%" text-anchor="middle">
      BAKERY
    </textPath>
  </text>
</svg>